<svg width="150" height="92" viewBox="0 0 150 92" fill="none" xmlns="http://www.w3.org/2000/svg">
<path d="M74.9996 81.1989C105.124 81.1989 129.545 78.1463 129.545 74.3807C129.545 70.6151 105.124 67.5625 74.9996 67.5625C44.8749 67.5625 20.4541 70.6151 20.4541 74.3807C20.4541 78.1463 44.8749 81.1989 74.9996 81.1989Z" fill="#E7F5FE"/>
<path d="M70.9249 10.5371H66.3078C65.1632 10.5371 64.2354 11.6907 64.2354 13.1138V13.5097C64.2354 14.9328 65.1632 16.0864 66.3078 16.0864H70.9249C72.0695 16.0864 72.9974 14.9328 72.9974 13.5097V13.1138C72.9974 11.6907 72.0695 10.5371 70.9249 10.5371Z" fill="#BED7FC"/>
<path d="M63.3455 68.3066L56.5752 72.1877V73.0479H80.6885V72.1877L73.8567 68.3066H63.3455Z" fill="#A3C4F5"/>
<path d="M73.8572 48.8379H63.3428V68.3035H73.8572V48.8379Z" fill="#A3C4F5"/>
<path d="M100.42 54.0586V16.5404C100.42 15.6843 100.146 14.8633 99.6593 14.2579C99.1724 13.6526 98.512 13.3125 97.8234 13.3125H39.3121C38.6235 13.3125 37.9631 13.6526 37.4762 14.2579C36.9894 14.8633 36.7158 15.6843 36.7158 16.5404V54.0586H100.42Z" fill="#BED7FC"/>
<path d="M36.7158 54.0586V60.0721C36.7158 61.3223 37.3802 62.3353 38.2015 62.3353H98.934C99.7553 62.3353 100.42 61.3303 100.42 60.0721V54.0586H36.7158Z" fill="#D3E4FC"/>
<path d="M69.2585 12.013C69.2585 12.1584 69.2238 12.3007 69.1588 12.4216C69.0938 12.5426 69.0014 12.6369 68.8933 12.6926C68.7852 12.7483 68.6662 12.7628 68.5514 12.7344C68.4367 12.7061 68.3312 12.636 68.2485 12.5331C68.1657 12.4302 68.1094 12.2992 68.0866 12.1565C68.0637 12.0138 68.0755 11.8659 68.1202 11.7314C68.165 11.597 68.2409 11.4821 68.3382 11.4013C68.4355 11.3205 68.5498 11.2773 68.6669 11.2773C68.8238 11.2773 68.9743 11.3548 69.0853 11.4928C69.1962 11.6308 69.2585 11.8179 69.2585 12.013V12.013Z" fill="#A0C5FD"/>
<path d="M98.9286 52.4318V16.642C98.9218 16.1833 98.7689 15.7468 98.5033 15.4284C98.2378 15.1099 97.8814 14.9356 97.5125 14.9436H39.6251C39.2562 14.9356 38.8999 15.1099 38.6343 15.4284C38.3688 15.7468 38.2158 16.1833 38.209 16.642V52.4318H98.9286Z" fill="#F2F6FD"/>
<g clip-path="url(#clip0_10792_158483)">
<path d="M61.4121 39.6581C60.0629 37.9717 60.3403 35.5068 62.0307 34.1608L65.9849 31.0122L64.4857 29.1385L60.5316 32.287C57.8032 34.4595 57.3562 38.4317 59.5339 41.1536C61.7116 43.8755 65.6933 44.3214 68.4216 42.1489L72.3758 39.0004L70.8767 37.1266L66.9225 40.2752C65.2321 41.6211 62.7613 41.3445 61.4121 39.6581ZM66.2542 37.417L74.1625 31.12L72.5845 29.1476L64.6761 35.4446L66.2542 37.417ZM70.417 24.4157L66.4628 27.5642L67.9619 29.438L71.9161 26.2895C73.6065 24.9435 76.0773 25.2202 77.4265 26.9066C78.7757 28.5929 78.4984 31.0579 76.808 32.4038L72.8538 35.5524L74.3529 37.4261L78.3071 34.2776C81.0354 32.1051 81.4824 28.1329 79.3047 25.411C77.1271 22.6891 73.1454 22.2432 70.417 24.4157Z" fill="#6797EC"/>
</g>
<path d="M109.163 28.3707L105.685 29.9999C105.685 29.9999 98.3654 30.4689 96.4342 30.0942C94.5031 29.7194 94.0114 28.2854 94.0114 28.2854C95.5989 26.8865 97.5634 25.9909 99.6572 25.7115C99.9903 25.6666 100.328 25.6352 100.688 25.6218C101.28 25.5975 101.873 25.6253 102.46 25.7048C106.894 26.3286 109.163 28.3707 109.163 28.3707Z" fill="#D9F0FF"/>
<path d="M105.199 73.1841C105.199 73.1841 105.199 74.3013 104.456 74.6365C103.713 74.9717 101.537 75.3172 102.373 76.0109C102.851 76.411 105.049 76.0863 105.67 76.0681C106.291 76.0499 106.883 76.3071 107.336 75.8784C107.833 75.4029 107.261 73.127 107.261 73.127C106.949 73.2977 106.604 73.3988 106.249 73.4231C105.884 73.4416 105.52 73.3589 105.199 73.1841Z" fill="#331832"/>
<path d="M97.5079 73.1841C97.5079 73.1841 97.5079 74.3013 96.7652 74.6365C96.0225 74.9717 93.8462 75.3172 94.695 76.0109C95.1737 76.4111 97.3708 76.0863 97.9919 76.0681C98.6129 76.0499 99.2055 76.3071 99.6584 75.8784C100.155 75.403 99.5834 73.127 99.5834 73.127C99.2713 73.2977 98.9261 73.3988 98.5715 73.4231C98.2018 73.444 97.8336 73.3612 97.5079 73.1841Z" fill="#331832"/>
<path d="M91.794 39.832C91.794 39.832 91.5094 44.8699 92.8524 54.5845C93.8203 61.5996 94.9977 68.6745 95.5774 72.0651C95.6716 72.6486 95.9587 73.1833 96.3925 73.5829C96.8263 73.9826 97.3814 74.2241 97.9685 74.2684L98.6129 74.3125C98.9224 74.3288 99.2318 74.2793 99.521 74.1673C99.8102 74.0554 100.073 73.8835 100.291 73.6628C100.51 73.4422 100.679 73.1777 100.789 72.8868C100.899 72.5958 100.947 72.2848 100.929 71.9742L99.9145 49.1102L99.7153 41.5884L91.794 39.832Z" fill="#26387A"/>
<path d="M98.9261 40.0234C98.9261 40.0234 98.6414 45.0613 99.9819 54.7785C100.952 61.7936 102.13 68.8659 102.709 72.2565C102.916 73.4698 103.91 73.8154 105.106 73.8882L106.017 73.9271C107.311 74.0129 108.118 73.5036 108.058 72.1734L107.047 49.3093L106.847 41.7746L98.9261 40.0234Z" fill="#26387A"/>
<path d="M106.881 28.5356C106.881 28.5356 106.167 25.3243 100.254 25.132C91.7297 24.8566 92.3094 32.7421 91.1966 44.6729C91.1966 44.6729 99.6251 43.709 107.533 45.6395C107.536 45.6395 108.602 33.4592 106.881 28.5356Z" fill="#D9F0FF"/>
<path d="M101.087 24.4248L100.68 22.9672L100.561 22.5411L99.8626 20.0469L99.6969 22.5048L99.596 23.9831L99.565 24.4482C99.5443 24.7678 99.3502 24.8275 99.1069 25.0977C99.0086 25.2069 98.3823 25.8772 99.0655 26.1942C99.9143 26.5995 101.539 26.0643 102.171 25.3238C102.166 25.3342 101.219 24.8951 101.087 24.4248Z" fill="#FFB27D"/>
<path d="M97.2647 19.8085C97.2911 20.2604 97.4129 20.7034 97.6221 21.1087C97.9699 21.8095 98.2319 19.8319 98.2319 19.8319L97.2647 19.8085Z" fill="#5C305D"/>
<path d="M100.104 23.7291C98.8984 23.8631 97.7679 22.7965 97.5793 21.3467C97.3906 19.897 98.2152 18.613 99.4211 18.479C100.627 18.345 101.757 19.4116 101.946 20.8614C102.135 22.3112 101.31 23.5951 100.104 23.7291Z" fill="#FFB27D"/>
<path d="M101.803 20.1134L100.745 20.2606C100.63 20.2771 100.513 20.2678 100.401 20.2332C100.289 20.1986 100.186 20.1396 100.099 20.0606C99.8019 19.7807 99.5022 19.6754 98.5462 19.9357C97.3413 20.2802 96.3434 19.7542 96.0432 19.1491C95.7429 18.5441 96.2425 17.9384 96.9352 18.0988C97.6278 18.2591 97.1649 17.5642 97.7314 17.3369C98.7887 16.9155 99.2212 17.7116 100.099 17.4684C101.27 17.1429 103.619 17.5205 103.17 19.8391L101.803 20.1134Z" fill="#331832"/>
<path d="M103.187 19.8437C103.187 19.8437 102.883 21.5521 101.905 21.901C101.905 21.901 102.412 20.532 100.505 20.2405C100.501 20.2543 102.02 19.6152 103.187 19.8437Z" fill="#5C305D"/>
<path d="M101.988 21.0437C101.925 21.0969 101.847 21.1306 101.765 21.1406C101.682 21.1506 101.598 21.1365 101.523 21.1C101.447 21.0635 101.383 21.0062 101.339 20.935C101.295 20.8638 101.272 20.7818 101.274 20.6989C101.275 20.6159 101.301 20.5356 101.347 20.4677C101.394 20.3997 101.46 20.347 101.537 20.316C101.613 20.2849 101.698 20.2769 101.78 20.2927C101.862 20.3086 101.938 20.3477 101.999 20.4054C102.041 20.4487 102.074 20.4996 102.096 20.5552C102.117 20.6108 102.128 20.67 102.127 20.7293C102.126 20.7886 102.113 20.8469 102.089 20.9009C102.065 20.9548 102.031 21.0034 101.988 21.0437Z" fill="#FFB27D"/>
<path d="M100.502 20.2564C100.502 20.2564 100.98 21.5103 100.782 21.8188C100.584 22.1272 98.8932 22.652 97.9912 22.5455C98.0878 22.9478 98.3245 23.3055 98.659 23.5544C98.9934 23.8034 99.4038 23.9273 99.8168 23.9042C100.102 23.8817 100.381 23.8121 100.641 23.6981C101.181 23.4575 101.669 23.0887 101.774 22.5008C101.802 22.3255 101.334 21.3934 101.334 21.3934C101.334 21.3934 101.103 20.836 101.36 20.4534C101.095 20.3148 100.799 20.2468 100.502 20.2564Z" fill="#5C305D"/>
<path d="M99.3252 23.0941C99.3428 23.1256 99.3688 23.1518 99.4003 23.1696C99.4318 23.1874 99.4675 23.1961 99.5034 23.1948C99.5393 23.1935 99.574 23.1822 99.6034 23.1622C99.6328 23.1422 99.6559 23.1143 99.67 23.0816C99.6841 23.0489 99.6886 23.0128 99.683 22.9774C99.6774 22.942 99.662 22.9086 99.6385 22.8811C99.615 22.8537 99.5843 22.8332 99.55 22.822C99.5156 22.8108 99.479 22.8094 99.4442 22.8178C99.3919 22.8388 99.3502 22.8794 99.328 22.931C99.3057 22.9826 99.3048 23.0411 99.3252 23.0941Z" fill="white"/>
<path d="M99.3015 39.3235L92.2679 38.6168C92.066 38.6005 91.8734 38.5251 91.7137 38.4C91.5541 38.2748 91.4346 38.1054 91.3699 37.9127L88.8986 29.4738C88.8641 29.3356 88.8604 29.1914 88.8877 29.0515C88.9151 28.9117 88.9729 28.7796 89.0569 28.6647C89.1409 28.5498 89.2491 28.455 89.3739 28.3869C89.4986 28.3188 89.6367 28.2792 89.7784 28.2709L96.2868 27.4524C97.3452 27.2576 97.8394 27.7123 97.9533 28.2007L100.435 38.1543C100.595 38.7987 100.016 39.3963 99.3015 39.3235Z" fill="#8EAFEA"/>
<path d="M98.7004 39.3229L91.6564 38.6162C91.4544 38.6014 91.2613 38.5265 91.1019 38.4011C90.9424 38.2757 90.8237 38.1055 90.761 37.9121L88.2923 29.4732C88.2578 29.3349 88.2541 29.1907 88.2814 29.0509C88.3088 28.911 88.3665 28.7789 88.4506 28.6641C88.5346 28.5492 88.6428 28.4543 88.7675 28.3862C88.8923 28.3182 89.0304 28.2785 89.1721 28.2702L96.198 27.4596C96.4458 27.4209 96.6991 27.4739 96.9109 27.6087C97.1227 27.7435 97.2786 27.9508 97.3496 28.1923L99.8339 38.1537C99.8639 38.311 99.8556 38.4733 99.8098 38.6267C99.764 38.7801 99.6819 38.9201 99.5707 39.0349C99.4594 39.1497 99.3222 39.2358 99.1707 39.2859C99.0192 39.3361 98.8579 39.3487 98.7004 39.3229Z" fill="#A3BDED"/>
<path d="M95.5386 28.6569C95.5391 28.7159 95.557 28.7734 95.59 28.8222C95.623 28.871 95.6697 28.9089 95.7241 28.9311C95.7785 28.9533 95.8383 28.9588 95.8958 28.947C95.9534 28.9352 96.0062 28.9065 96.0475 28.8646C96.0889 28.8228 96.117 28.7695 96.1283 28.7116C96.1395 28.6537 96.1335 28.5938 96.1109 28.5393C96.0883 28.4849 96.0502 28.4384 96.0013 28.4057C95.9524 28.3729 95.895 28.3555 95.8362 28.3555C95.7969 28.3555 95.758 28.3633 95.7217 28.3785C95.6854 28.3936 95.6525 28.4159 95.6249 28.4439C95.5972 28.4719 95.5753 28.5052 95.5605 28.5417C95.5457 28.5783 95.5383 28.6174 95.5386 28.6569Z" fill="#8EAFEA"/>
<path d="M109.143 41.1658C110.455 40.3136 111.456 37.8739 110.035 32.4125C109.655 30.9497 108.687 29.5545 108.565 29.4895C107.911 29.17 106.565 29.5597 106.179 29.8117C105.52 30.243 104.05 31.4096 104.495 32.2696L106.348 36.3773C105.113 35.8135 100.141 33.3994 100.131 33.3864L98.9767 34.8612C101.18 36.8626 106.179 42.1295 109.143 41.1658Z" fill="#FFB27D"/>
<path d="M100.236 33.4918C100.236 33.4918 99.6828 31.9184 98.9571 31.6787C98.2314 31.439 97.1004 31.7752 97.5452 31.971C97.8275 32.0937 98.5829 32.1887 98.5829 32.1887C98.5829 32.1887 97.243 32.104 97.3122 32.4649C97.3602 32.7177 98.5025 32.8639 98.5025 32.8639C98.5025 32.8639 96.9493 32.8507 97.099 33.1781C97.219 33.4396 98.4177 33.5463 98.4177 33.5463C98.4177 33.5463 97.0326 33.4923 97.1922 33.8795C97.2995 34.1411 98.2257 33.8941 98.2497 34.2609C98.2737 34.6628 98.5443 34.6246 99.0822 34.9665L100.236 33.4918Z" fill="#FFB27D"/>
<path d="M88.1817 32.8551C88.0749 33.1538 88.0715 33.4812 88.2034 33.7697C88.4248 34.2542 88.8239 34.974 89.2958 35.1299C90.0216 35.3696 91.1525 35.0334 90.7078 34.8376C90.4254 34.7149 89.67 34.6199 89.67 34.6199C89.67 34.6199 91.0099 34.7046 90.9407 34.3437C90.8927 34.0909 89.7505 33.9447 89.7505 33.9447C89.7505 33.9447 91.3036 33.9579 91.1539 33.6305C91.0339 33.3689 89.8352 33.2623 89.8352 33.2623C89.8352 33.2623 91.2203 33.3163 91.0608 32.9291C90.9535 32.6675 90.0272 32.9145 90.0032 32.5477C89.9878 32.2898 89.8709 32.2131 89.6468 32.1009C89.3541 31.9543 88.9965 31.9675 88.7308 32.1589L88.6756 32.1986C88.4483 32.3623 88.276 32.5913 88.1817 32.8551Z" fill="#FFB27D"/>
<path d="M100.223 56.8035C100.229 56.8028 100.235 56.801 100.24 56.798C100.246 56.795 100.251 56.791 100.254 56.7862C100.258 56.7813 100.261 56.7758 100.263 56.7698C100.265 56.7639 100.265 56.7577 100.264 56.7515C100.264 56.6943 99.651 51.0355 98.1009 49.1648C98.0966 49.1603 98.0913 49.1566 98.0856 49.1541C98.0798 49.1517 98.0735 49.1504 98.0673 49.1504C98.061 49.1504 98.0548 49.1517 98.049 49.1541C98.0432 49.1566 98.038 49.1603 98.0336 49.1648C98.0252 49.1735 98.0206 49.1852 98.0206 49.1973C98.0206 49.2094 98.0252 49.221 98.0336 49.2298C99.5682 51.0771 100.174 56.7099 100.179 56.7645C100.181 56.7751 100.186 56.7847 100.194 56.7918C100.202 56.7989 100.212 56.803 100.223 56.8035Z" fill="#2AA7F9"/>
<path d="M100.197 56.7566C100.197 56.715 99.6402 52.5995 99.2287 51.1159C98.8172 49.6323 96.9255 48.3826 96.8997 48.3696L96.954 48.2891C97.0342 48.341 98.8974 49.5882 99.3167 51.0899C99.7359 52.5917 100.282 56.6994 100.287 56.7436L100.197 56.7566Z" fill="#2AA7F9"/>
<path d="M109.254 28.37C109.619 28.9261 108.695 30.2148 107.184 31.2488C105.673 32.2829 104.159 32.6674 103.794 32.114C103.429 31.5606 104.356 30.2693 105.864 29.2352C107.373 28.2012 108.887 27.8166 109.254 28.37Z" fill="#D9F0FF"/>
<defs>
<clipPath id="clip0_10792_158483">
<rect width="30.3274" height="30.3114" fill="white" transform="matrix(0.782296 -0.622906 0.624721 0.780848 48.0889 30.8945)"/>
</clipPath>
</defs>
</svg>
