<svg width="196" height="106" viewBox="0 0 196 106" fill="none" xmlns="http://www.w3.org/2000/svg">
<path fill-rule="evenodd" clip-rule="evenodd" d="M156.5 28.9699C159.641 25.8622 164.706 25.8889 167.814 29.0296C185.231 46.6317 196 70.8616 196 97.5912C196 102.009 192.418 105.591 188 105.591C183.581 105.591 180 102.009 180 97.5912C180 75.2444 171.014 55.0119 156.44 40.2834C153.333 37.1428 153.359 32.0775 156.5 28.9699Z" fill="#1A7B53"/>
<path fill-rule="evenodd" clip-rule="evenodd" d="M90.5254 8.11194C90.5254 3.69366 94.1071 0.111939 98.5254 0.111939C125.628 0.111941 150.159 11.1832 167.819 29.03C170.926 32.1706 170.9 37.2359 167.759 40.3435C164.618 43.4512 159.553 43.4244 156.446 40.2838C141.668 25.3495 121.183 16.1119 98.5254 16.1119C94.1071 16.1119 90.5254 12.5302 90.5254 8.11194Z" fill="#26B177"/>
<path fill-rule="evenodd" clip-rule="evenodd" d="M97.4711 16C75.2957 16 55.2029 24.8481 40.5039 39.2245C37.3452 42.3138 32.2802 42.2576 29.1909 39.0989C26.1015 35.9402 26.1578 30.8752 29.3164 27.7859C46.8841 10.6039 70.9473 2.74959e-06 97.4711 4.40569e-06C101.889 4.68156e-06 105.471 3.58173 105.471 8C105.471 12.4183 101.889 16 97.4711 16Z" fill="#FF7943"/>
<path fill-rule="evenodd" clip-rule="evenodd" d="M40.6379 27.9114C43.7272 31.0701 43.671 36.1351 40.5123 39.2244C25.378 54.0264 16 74.6506 16 97.4796C16 101.898 12.4183 105.48 8 105.48C3.58172 105.48 -4.76981e-06 101.898 -4.49394e-06 97.4796C-2.78887e-06 70.1713 11.2397 45.4739 29.3249 27.7858C32.4836 24.6965 37.5486 24.7527 40.6379 27.9114Z" fill="#FF2A35"/>
</svg>
